Coordinates
version=1
nRows=6
nColumns=36
inDegrees=yes

Units are S.I. units (second, meters, Newtons, ...)
If the header above contains a line with 'inDegrees', this indicates whether rotational values are in degrees (yes) or radians (no).

endheader
time	pelvis_tilt	pelvis_list	pelvis_rotation	pelvis_tx	pelvis_ty	pelvis_tz	hip_flexion_r	hip_adduction_r	hip_rotation_r	knee_angle_r	knee_angle_r_beta	ankle_angle_r	subtalar_angle_r	mtp_angle_r	hip_flexion_l	hip_adduction_l	hip_rotation_l	knee_angle_l	knee_angle_l_beta	ankle_angle_l	subtalar_angle_l	mtp_angle_l	lumbar_extension	lumbar_bending	lumbar_rotation	arm_flex_r	arm_add_r	arm_rot_r	elbow_flex_r	pro_sup_r	arm_flex_l	arm_add_l	arm_rot_l	elbow_flex_l	pro_sup_l
      6.58333330	    -27.17085283	      3.49395671	     -3.58331666	      0.69513730	      0.81552406	     -0.00557939	     60.70017888	    -12.00078432	     -3.94372298	     45.28024354	      0.79028934	     16.31516055	      6.22539154	     -7.49999987	     57.30349663	    -10.47487782	     -1.98765814	     44.46035984	      0.77597967	     20.95219831	      2.46351712	     -7.49999987	    -10.51807963	     -4.23575267	      6.57683102	     54.39656546	     -2.36927469	     72.95975724	    128.36253364	    110.54547577	     65.28681560	      1.37432607	     67.16438682	    121.04876402	    111.41046920
      6.60000000	    -26.34032357	      3.63603947	     -3.88338490	      0.70939566	      0.82488503	     -0.00676671	     57.50432220	    -11.84136708	     -4.31454477	     41.87911700	      0.73092848	     15.25920050	      6.44858879	     -7.49999987	     53.65150268	     -9.99832616	     -2.25097607	     40.65137609	      0.70950036	     19.68387485	      2.49065529	     -7.49999987	     -9.23372179	     -4.34441494	      6.21451658	     52.18399749	     -2.00925402	     72.70253417	    128.50476881	    110.63475377	     63.25662153	      1.29887891	     67.01307866	    121.26203686	    111.33953023
      6.61666670	    -24.94750182	      3.71999121	     -4.16921473	      0.70780010	      0.83023671	     -0.00624907	     54.33306750	    -11.62088493	     -4.21245131	     39.36337064	      0.68702042	     14.37026727	      6.05559788	     -7.49999987	     49.89542778	     -9.56757617	     -2.39078448	     37.38173518	      0.65243436	     18.67320577	      2.18994055	     -7.49999987	     -8.77246645	     -4.49911950	      5.72416595	     51.36305220	     -1.80875801	     70.75819975	    128.75254924	    110.79530908	     62.99477928	      1.45070845	     65.54390847	    121.35308397	    111.20841123
      6.63333330	    -23.90393570	      3.88529515	     -4.39424604	      0.70847958	      0.84127417	     -0.00613368	     51.84255776	    -11.54552028	     -4.15578937	     37.25644431	      0.65024762	     13.50426660	      5.78344936	     -7.49999987	     46.74284448	     -9.09808884	     -2.51740315	     34.38093751	      0.60006056	     17.74397520	      2.15131876	     -7.49999987	     -8.15675713	     -4.62415434	      5.22466830	     51.30358099	     -1.49739514	     69.87694406	    129.25168320	    110.89614347	     62.83045002	      1.33557666	     65.59508390	    121.69149864	    111.08930541
      6.65000000	    -22.45027287	      3.87918303	     -4.72343957	      0.72137820	      0.85449212	     -0.00622491	     48.47688270	    -11.33404192	     -4.30200817	     34.60645344	      0.60399655	     12.78401420	      5.71684745	     -7.49999987	     42.79125403	     -8.71978351	     -2.44091046	     30.83816156	      0.53822745	     16.34399918	      1.67566975	     -7.49999987	     -8.20900315	     -4.51554549	      4.68635884	     49.83516114	     -1.39936641	     68.41377867	    128.05960316	    111.12527891	     61.28195939	      0.54050551	     66.49142488	    122.23643018	    111.25936640
      6.66666670	    -21.47382609	      3.69304426	     -4.99346856	      0.72291216	      0.86491722	      0.00060228	     45.62129882	    -10.78796049	     -4.37744147	     31.96284748	      0.55785693	     11.80950723	      5.30533888	     -7.49999987	     39.55605935	     -8.67186979	     -2.45161088	     27.55373772	      0.48090344	     14.83213756	      1.59477456	     -7.49999987	     -7.58017764	     -4.40883453	      4.69834464	     48.29864793	     -1.30267609	     67.28548961	    126.91589137	    111.02252832	     59.86354952	     -0.13212474	     67.16086717	    122.17221451	    111.28484816
